<svg width="80" height="78" viewBox="0 0 80 78" fill="none" xmlns="http://www.w3.org/2000/svg">
<rect y="12" width="80" height="66" rx="20" fill="white"/>
<path d="M24.25 28C21.3625 28 19 30.7 19 34C19 37.3 21.3625 40 24.25 40C27.1375 40 29.5 37.3 29.5 34C29.5 30.7 27.1375 28 24.25 28ZM55.75 28C52.8625 28 50.5 30.7 50.5 34C50.5 37.3 52.8625 40 55.75 40C58.6375 40 61 37.3 61 34C61 30.7 58.6375 28 55.75 28ZM40 28C37.1125 28 34.75 30.7 34.75 34C34.75 37.3 37.1125 40 40 40C42.8875 40 45.25 37.3 45.25 34C45.25 30.7 42.8875 28 40 28Z" fill="#5AA8FF"/>
<path d="M24.25 50C21.3625 50 19 52.475 19 55.5C19 58.525 21.3625 61 24.25 61C27.1375 61 29.5 58.525 29.5 55.5C29.5 52.475 27.1375 50 24.25 50ZM55.75 50C52.8625 50 50.5 52.475 50.5 55.5C50.5 58.525 52.8625 61 55.75 61C58.6375 61 61 58.525 61 55.5C61 52.475 58.6375 50 55.75 50ZM40 50C37.1125 50 34.75 52.475 34.75 55.5C34.75 58.525 37.1125 61 40 61C42.8875 61 45.25 58.525 45.25 55.5C45.25 52.475 42.8875 50 40 50Z" fill="#5AA8FF"/>
</svg>
